<svg width="19" height="19" viewBox="0 0 19 19" fill="none" xmlns="http://www.w3.org/2000/svg">
<path d="M12.9473 13.9878C11.0766 15.4388 8.98176 15.9482 6.67495 15.4388C4.90612 15.0516 3.47965 14.0979 2.41184 12.6347C0.202844 9.6106 0.626715 5.46976 3.39814 2.91027C6.031 0.477114 10.2371 0.403752 12.9881 2.69833C15.9429 5.16409 16.5869 9.7288 13.9785 12.9608C14.0274 13.0138 14.0804 13.0708 14.1334 13.1238C15.3357 14.3261 16.542 15.5284 17.7403 16.7389C17.8626 16.8612 17.9604 17.0323 18.0011 17.1994C18.0745 17.5133 17.9074 17.8026 17.6343 17.9453C17.3531 18.092 17.0311 18.0472 16.7907 17.8148C16.4361 17.4684 16.0897 17.1179 15.7432 16.7674C14.8547 15.883 13.9703 14.9945 13.0818 14.1101C13.0411 14.0693 12.9963 14.0327 12.9473 13.9878ZM8.31743 2.44972C5.09768 2.44157 2.45667 5.07035 2.44037 8.3064C2.42407 11.5384 5.061 14.1916 8.29705 14.1998C11.5209 14.2079 14.17 11.5791 14.1863 8.35531C14.2026 5.10703 11.5698 2.45787 8.31743 2.44972Z" fill="black" stroke="black" stroke-width="0.5" stroke-miterlimit="10"/>
</svg>
