<svg width="19" height="18" viewBox="0 0 19 18" fill="none" xmlns="http://www.w3.org/2000/svg">
<path d="M12.9473 13.2798C11.0766 14.7306 8.98176 15.2401 6.67495 14.7306C4.90612 14.3435 3.47965 13.3898 2.41184 11.9267C0.202844 8.90273 0.626715 4.76206 3.39814 2.20267C6.031 -0.230383 10.2371 -0.303742 12.9881 1.99074C15.9429 4.4564 16.5869 9.02092 13.9785 12.2528C14.0274 12.3057 14.0804 12.3628 14.1334 12.4158C15.3357 13.618 16.542 14.8203 17.7403 16.0307C17.8626 16.153 17.9604 16.3241 18.0011 16.4912C18.0745 16.805 17.9074 17.0944 17.6343 17.237C17.3531 17.3838 17.0311 17.3389 16.7907 17.1066C16.4361 16.7602 16.0897 16.4097 15.7432 16.0592C14.8547 15.1749 13.9703 14.2864 13.0818 13.402C13.0411 13.3613 12.9963 13.3246 12.9473 13.2798ZM8.31743 1.74214C5.09768 1.73399 2.45667 4.36266 2.44037 7.59858C2.42407 10.8304 5.061 13.4835 8.29705 13.4917C11.5209 13.4998 14.17 10.8712 14.1863 7.64748C14.2026 4.39934 11.5698 1.75029 8.31743 1.74214Z" fill="black" stroke="black" stroke-width="0.5" stroke-miterlimit="10"/>
</svg>
